<?xml version="1.0" encoding="UTF-8" standalone="no"?>
<!DOCTYPE svg PUBLIC "-//W3C//DTD SVG 1.1//EN"
 "http://www.w3.org/Graphics/SVG/1.1/DTD/svg11.dtd">
<!-- Generated by graphviz version 13.1.0 (20250701.0955)
 -->
<!-- Title: src/driver_gt30l32s4w.h Pages: 1 -->
<svg width="433pt" height="232pt"
 viewBox="0.00 0.00 433.00 232.00" xmlns="http://www.w3.org/2000/svg" xmlns:xlink="http://www.w3.org/1999/xlink">
<g id="graph0" class="graph" transform="scale(1 1) rotate(0) translate(4 228)">
<title>src/driver_gt30l32s4w.h</title>
<!-- Node1 -->
<g id="Node000001" class="node">
<title>Node1</title>
<g id="a_Node000001"><a xlink:title="driver gt30l32s4w header file">
<polygon fill="#999999" stroke="#666666" points="351.62,-224 232.88,-224 232.88,-204 351.62,-204 351.62,-224"/>
<text xml:space="preserve" text-anchor="middle" x="292.25" y="-210.5" font-family="Helvetica,sans-Serif" font-size="10.00">src/driver_gt30l32s4w.h</text>
</a>
</g>
</g>
<!-- Node2 -->
<g id="Node000002" class="node">
<title>Node2</title>
<g id="a_Node000002"><a xlink:href="driver__gt30l32s4w__interface_8h.html" target="_top" xlink:title="driver gt30l32s4w interface header file">
<polygon fill="white" stroke="#666666" points="287.88,-168 152.62,-168 152.62,-136 287.88,-136 287.88,-168"/>
<text xml:space="preserve" text-anchor="start" x="160.62" y="-154.5" font-family="Helvetica,sans-Serif" font-size="10.00">interface/driver_gt30l32s4w</text>
<text xml:space="preserve" text-anchor="middle" x="220.25" y="-142.5" font-family="Helvetica,sans-Serif" font-size="10.00">_interface.h</text>
</a>
</g>
</g>
<!-- Node1&#45;&gt;Node2 -->
<g id="edge1_Node000001_Node000002" class="edge">
<title>Node1&#45;&gt;Node2</title>
<g id="a_edge1_Node000001_Node000002"><a xlink:title=" ">
<path fill="none" stroke="#63b8ff" d="M272.46,-196.51C261.92,-187.72 249.03,-176.98 238.7,-168.37"/>
<polygon fill="#63b8ff" stroke="#63b8ff" points="269.91,-198.94 279.84,-202.66 274.4,-193.57 269.91,-198.94"/>
</a>
</g>
</g>
<!-- Node8 -->
<g id="Node000008" class="node">
<title>Node8</title>
<g id="a_Node000008"><a xlink:href="driver__gt30l32s4w_8c.html" target="_top" xlink:title="driver gt30l32s4w source file">
<polygon fill="white" stroke="#666666" points="424.62,-162 305.88,-162 305.88,-142 424.62,-142 424.62,-162"/>
<text xml:space="preserve" text-anchor="middle" x="365.25" y="-148.5" font-family="Helvetica,sans-Serif" font-size="10.00">src/driver_gt30l32s4w.c</text>
</a>
</g>
</g>
<!-- Node1&#45;&gt;Node8 -->
<g id="edge7_Node000001_Node000008" class="edge">
<title>Node1&#45;&gt;Node8</title>
<g id="a_edge7_Node000001_Node000008"><a xlink:title=" ">
<path fill="none" stroke="#63b8ff" d="M312.27,-196.55C325.77,-185.45 343.07,-171.23 354.16,-162.11"/>
<polygon fill="#63b8ff" stroke="#63b8ff" points="310.33,-193.61 304.83,-202.66 314.77,-199.02 310.33,-193.61"/>
</a>
</g>
</g>
<!-- Node3 -->
<g id="Node000003" class="node">
<title>Node3</title>
<g id="a_Node000003"><a xlink:href="driver__gt30l32s4w__basic_8h.html" target="_top" xlink:title="driver gt30l32s4w basic header file">
<polygon fill="white" stroke="#666666" points="134.5,-100 0,-100 0,-68 134.5,-68 134.5,-100"/>
<text xml:space="preserve" text-anchor="start" x="8" y="-86.5" font-family="Helvetica,sans-Serif" font-size="10.00">example/driver_gt30l32s4w</text>
<text xml:space="preserve" text-anchor="middle" x="67.25" y="-74.5" font-family="Helvetica,sans-Serif" font-size="10.00">_basic.h</text>
</a>
</g>
</g>
<!-- Node2&#45;&gt;Node3 -->
<g id="edge2_Node000002_Node000003" class="edge">
<title>Node2&#45;&gt;Node3</title>
<g id="a_edge2_Node000002_Node000003"><a xlink:title=" ">
<path fill="none" stroke="#63b8ff" d="M173.95,-131.03C151.23,-121.23 124.29,-109.61 103.16,-100.49"/>
<polygon fill="#63b8ff" stroke="#63b8ff" points="172.42,-134.18 182.99,-134.93 175.19,-127.75 172.42,-134.18"/>
</a>
</g>
</g>
<!-- Node5 -->
<g id="Node000005" class="node">
<title>Node5</title>
<g id="a_Node000005"><a xlink:href="driver__gt30l32s4w__interface__template_8c.html" target="_top" xlink:title="driver gt30l32s4w interface template source file">
<polygon fill="white" stroke="#666666" points="287.88,-100 152.62,-100 152.62,-68 287.88,-68 287.88,-100"/>
<text xml:space="preserve" text-anchor="start" x="160.62" y="-86.5" font-family="Helvetica,sans-Serif" font-size="10.00">interface/driver_gt30l32s4w</text>
<text xml:space="preserve" text-anchor="middle" x="220.25" y="-74.5" font-family="Helvetica,sans-Serif" font-size="10.00">_interface_template.c</text>
</a>
</g>
</g>
<!-- Node2&#45;&gt;Node5 -->
<g id="edge4_Node000002_Node000005" class="edge">
<title>Node2&#45;&gt;Node5</title>
<g id="a_edge4_Node000002_Node000005"><a xlink:title=" ">
<path fill="none" stroke="#63b8ff" d="M220.25,-124.31C220.25,-116.12 220.25,-107.38 220.25,-100.22"/>
<polygon fill="#63b8ff" stroke="#63b8ff" points="216.75,-124.18 220.25,-134.18 223.75,-124.18 216.75,-124.18"/>
</a>
</g>
</g>
<!-- Node6 -->
<g id="Node000006" class="node">
<title>Node6</title>
<g id="a_Node000006"><a xlink:href="driver__gt30l32s4w__read__test_8h.html" target="_top" xlink:title="driver gt30l32s4w read test header file">
<polygon fill="white" stroke="#666666" points="420.38,-100 306.12,-100 306.12,-68 420.38,-68 420.38,-100"/>
<text xml:space="preserve" text-anchor="start" x="314.12" y="-86.5" font-family="Helvetica,sans-Serif" font-size="10.00">test/driver_gt30l32s4w</text>
<text xml:space="preserve" text-anchor="middle" x="363.25" y="-74.5" font-family="Helvetica,sans-Serif" font-size="10.00">_read_test.h</text>
</a>
</g>
</g>
<!-- Node2&#45;&gt;Node6 -->
<g id="edge5_Node000002_Node000006" class="edge">
<title>Node2&#45;&gt;Node6</title>
<g id="a_edge5_Node000002_Node000006"><a xlink:title=" ">
<path fill="none" stroke="#63b8ff" d="M264.14,-130.74C285.33,-120.96 310.34,-109.42 329.93,-100.38"/>
<polygon fill="#63b8ff" stroke="#63b8ff" points="262.76,-127.52 255.15,-134.89 265.7,-133.88 262.76,-127.52"/>
</a>
</g>
</g>
<!-- Node4 -->
<g id="Node000004" class="node">
<title>Node4</title>
<g id="a_Node000004"><a xlink:href="driver__gt30l32s4w__basic_8c.html" target="_top" xlink:title="driver gt30l32s4w basic source file">
<polygon fill="white" stroke="#666666" points="134.5,-32 0,-32 0,0 134.5,0 134.5,-32"/>
<text xml:space="preserve" text-anchor="start" x="8" y="-18.5" font-family="Helvetica,sans-Serif" font-size="10.00">example/driver_gt30l32s4w</text>
<text xml:space="preserve" text-anchor="middle" x="67.25" y="-6.5" font-family="Helvetica,sans-Serif" font-size="10.00">_basic.c</text>
</a>
</g>
</g>
<!-- Node3&#45;&gt;Node4 -->
<g id="edge3_Node000003_Node000004" class="edge">
<title>Node3&#45;&gt;Node4</title>
<g id="a_edge3_Node000003_Node000004"><a xlink:title=" ">
<path fill="none" stroke="#63b8ff" d="M67.25,-56.31C67.25,-48.12 67.25,-39.38 67.25,-32.22"/>
<polygon fill="#63b8ff" stroke="#63b8ff" points="63.75,-56.18 67.25,-66.18 70.75,-56.18 63.75,-56.18"/>
</a>
</g>
</g>
<!-- Node7 -->
<g id="Node000007" class="node">
<title>Node7</title>
<g id="a_Node000007"><a xlink:href="driver__gt30l32s4w__read__test_8c.html" target="_top" xlink:title="driver gt30l32s4w read test source file">
<polygon fill="white" stroke="#666666" points="420.38,-32 306.12,-32 306.12,0 420.38,0 420.38,-32"/>
<text xml:space="preserve" text-anchor="start" x="314.12" y="-18.5" font-family="Helvetica,sans-Serif" font-size="10.00">test/driver_gt30l32s4w</text>
<text xml:space="preserve" text-anchor="middle" x="363.25" y="-6.5" font-family="Helvetica,sans-Serif" font-size="10.00">_read_test.c</text>
</a>
</g>
</g>
<!-- Node6&#45;&gt;Node7 -->
<g id="edge6_Node000006_Node000007" class="edge">
<title>Node6&#45;&gt;Node7</title>
<g id="a_edge6_Node000006_Node000007"><a xlink:title=" ">
<path fill="none" stroke="#63b8ff" d="M363.25,-56.31C363.25,-48.12 363.25,-39.38 363.25,-32.22"/>
<polygon fill="#63b8ff" stroke="#63b8ff" points="359.75,-56.18 363.25,-66.18 366.75,-56.18 359.75,-56.18"/>
</a>
</g>
</g>
</g>
</svg>
