<?xml version="1.0" encoding="UTF-8" standalone="no"?>
<!DOCTYPE svg PUBLIC "-//W3C//DTD SVG 1.1//EN"
 "http://www.w3.org/Graphics/SVG/1.1/DTD/svg11.dtd">
<!-- Generated by graphviz version 13.1.0 (20250701.0955)
 -->
<!-- Title: gt30l32s4w_basic_read_16 Pages: 1 -->
<svg width="319pt" height="178pt"
 viewBox="0.00 0.00 319.00 178.00" xmlns="http://www.w3.org/2000/svg" xmlns:xlink="http://www.w3.org/1999/xlink">
<g id="graph0" class="graph" transform="scale(1 1) rotate(0) translate(4 174)">
<title>gt30l32s4w_basic_read_16</title>
<!-- Node1 -->
<g id="Node000001" class="node">
<title>Node1</title>
<g id="a_Node000001"><a xlink:title="basic example read 16">
<polygon fill="#999999" stroke="#666666" points="133.75,-101 0,-101 0,-81 133.75,-81 133.75,-101"/>
<text xml:space="preserve" text-anchor="middle" x="66.88" y="-87.5" font-family="Helvetica,sans-Serif" font-size="10.00">gt30l32s4w_basic_read_16</text>
</a>
</g>
</g>
<!-- Node2 -->
<g id="Node000002" class="node">
<title>Node2</title>
<g id="a_Node000002"><a xlink:href="group__gt30l32s4w__base__driver.html#gaee462f5c9071ae398db8252c157d2e7e" target="_top" xlink:title="read ascii 8x16">
<polygon fill="white" stroke="#666666" points="311,-170 169.75,-170 169.75,-150 311,-150 311,-170"/>
<text xml:space="preserve" text-anchor="middle" x="240.38" y="-156.5" font-family="Helvetica,sans-Serif" font-size="10.00">gt30l32s4w_read_ascii_8x16</text>
</a>
</g>
</g>
<!-- Node1&#45;&gt;Node2 -->
<g id="edge1_Node000001_Node000002" class="edge">
<title>Node1&#45;&gt;Node2</title>
<g id="a_edge1_Node000001_Node000002"><a xlink:title=" ">
<path fill="none" stroke="#63b8ff" d="M86.18,-101.31C106.22,-112.27 139.53,-129.58 169.75,-141 174.69,-142.87 179.89,-144.63 185.14,-146.28"/>
<polygon fill="#63b8ff" stroke="#63b8ff" points="183.85,-149.55 194.43,-149.07 185.86,-142.85 183.85,-149.55"/>
</a>
</g>
</g>
<!-- Node3 -->
<g id="Node000003" class="node">
<title>Node3</title>
<g id="a_Node000003"><a xlink:href="group__gt30l32s4w__base__driver.html#gab7edac95b51e7df6442a4183af76688b" target="_top" xlink:title="read char 15x16">
<polygon fill="white" stroke="#666666" points="297.12,-132 183.62,-132 183.62,-100 297.12,-100 297.12,-132"/>
<text xml:space="preserve" text-anchor="start" x="191.62" y="-118.5" font-family="Helvetica,sans-Serif" font-size="10.00">gt30l32s4w_read_char</text>
<text xml:space="preserve" text-anchor="middle" x="240.38" y="-106.5" font-family="Helvetica,sans-Serif" font-size="10.00">_15x16</text>
</a>
</g>
</g>
<!-- Node1&#45;&gt;Node3 -->
<g id="edge2_Node000001_Node000003" class="edge">
<title>Node1&#45;&gt;Node3</title>
<g id="a_edge2_Node000001_Node000003"><a xlink:title=" ">
<path fill="none" stroke="#63b8ff" d="M134.18,-100.67C146.59,-102.48 159.58,-104.37 172.02,-106.18"/>
<polygon fill="#63b8ff" stroke="#63b8ff" points="171.37,-109.62 181.77,-107.6 172.38,-102.7 171.37,-109.62"/>
</a>
</g>
</g>
<!-- Node4 -->
<g id="Node000004" class="node">
<title>Node4</title>
<g id="a_Node000004"><a xlink:href="group__gt30l32s4w__base__driver.html#ga01148f3ebaef741bdd190bc6447eef37" target="_top" xlink:title="read char extend 8x16">
<polygon fill="white" stroke="#666666" points="297.12,-82 183.62,-82 183.62,-50 297.12,-50 297.12,-82"/>
<text xml:space="preserve" text-anchor="start" x="191.62" y="-68.5" font-family="Helvetica,sans-Serif" font-size="10.00">gt30l32s4w_read_char</text>
<text xml:space="preserve" text-anchor="middle" x="240.38" y="-56.5" font-family="Helvetica,sans-Serif" font-size="10.00">_extend_8x16</text>
</a>
</g>
</g>
<!-- Node1&#45;&gt;Node4 -->
<g id="edge3_Node000001_Node000004" class="edge">
<title>Node1&#45;&gt;Node4</title>
<g id="a_edge3_Node000001_Node000004"><a xlink:title=" ">
<path fill="none" stroke="#63b8ff" d="M134.18,-81.33C146.59,-79.52 159.58,-77.63 172.02,-75.82"/>
<polygon fill="#63b8ff" stroke="#63b8ff" points="172.38,-79.3 181.77,-74.4 171.37,-72.38 172.38,-79.3"/>
</a>
</g>
</g>
<!-- Node5 -->
<g id="Node000005" class="node">
<title>Node5</title>
<g id="a_Node000005"><a xlink:href="group__gt30l32s4w__base__driver.html#gad15ff06360b228a67c946ea0fcddadd9" target="_top" xlink:title="read char special 8x16">
<polygon fill="white" stroke="#666666" points="297.12,-32 183.62,-32 183.62,0 297.12,0 297.12,-32"/>
<text xml:space="preserve" text-anchor="start" x="191.62" y="-18.5" font-family="Helvetica,sans-Serif" font-size="10.00">gt30l32s4w_read_char</text>
<text xml:space="preserve" text-anchor="middle" x="240.38" y="-6.5" font-family="Helvetica,sans-Serif" font-size="10.00">_special_8x16</text>
</a>
</g>
</g>
<!-- Node1&#45;&gt;Node5 -->
<g id="edge4_Node000001_Node000005" class="edge">
<title>Node1&#45;&gt;Node5</title>
<g id="a_edge4_Node000001_Node000005"><a xlink:title=" ">
<path fill="none" stroke="#63b8ff" d="M87.48,-80.56C107.78,-69.95 140.54,-53.37 169.75,-41 173.35,-39.48 177.07,-37.96 180.85,-36.48"/>
<polygon fill="#63b8ff" stroke="#63b8ff" points="182.04,-39.77 190.12,-32.92 179.53,-33.23 182.04,-39.77"/>
</a>
</g>
</g>
</g>
</svg>
